<?xml version="1.0" standalone="no"?><!DOCTYPE svg PUBLIC "-//W3C//DTD SVG 1.1//EN" "http://www.w3.org/Graphics/SVG/1.1/DTD/svg11.dtd"><svg t="1527728425564" class="icon" style="" viewBox="0 0 1024 1024" version="1.1" xmlns="http://www.w3.org/2000/svg" p-id="3268" xmlns:xlink="http://www.w3.org/1999/xlink" width="64" height="64"><defs><style type="text/css"></style></defs><path d="M608 512H480c-17.7 0-32 14.3-32 32s14.3 32 32 32h128c17.7 0 32-14.3 32-32s-14.3-32-32-32z" p-id="3269"></path><path d="M544 64C278.9 64 64 278.9 64 544c0 88.7 24.1 171.8 66.1 243.1l55.4-32c-0.1-0.1-0.2-0.3-0.2-0.4l166.3-96C390.7 724.2 462.2 768 544 768c82.2 0 154-44.3 193-110.3l166.3 96c-17.9 30.7-39.7 58.9-65.2 84.4-38.2 38.2-82.7 68.2-132.2 89.2C654.7 949 600.2 960 544 960s-110.7-11-161.9-32.7c-49.5-20.9-94-51-132.2-89.2-9.7-9.7-18.9-19.9-27.5-30.4l-56.1 32.4C254.1 952.1 390.7 1024 544 1024c265.1 0 480-214.9 480-480S809.1 64 544 64zM157.1 697.1C137.8 648.4 128 597 128 544c0-56.2 11-110.7 32.7-161.9 20.9-49.5 51-94 89.2-132.2 38.2-38.2 82.7-68.2 132.2-89.2 41.5-17.5 85-28.1 129.9-31.5v193.1C403.4 337.8 320 431.2 320 544c0 19 2.4 37.5 6.8 55.1l-169.7 98z m500-40C626.9 687.4 586.7 704 544 704s-82.9-16.6-113.1-46.9C400.6 626.9 384 586.7 384 544s16.6-82.9 46.9-113.1C461.1 400.6 501.3 384 544 384s82.9 16.6 113.1 46.9C687.4 461.1 704 501.3 704 544s-16.6 82.9-46.9 113.1zM576 322.3V129.2c44.9 3.4 88.4 13.9 129.9 31.5 49.5 20.9 94 51 132.2 89.2 38.2 38.2 68.2 82.7 89.2 132.2C949 433.3 960 487.8 960 544c0 52.6-9.6 103.7-28.6 152l-169.9-98.1c4.3-17.3 6.6-35.3 6.6-53.9-0.1-112.8-83.5-206.2-192.1-221.7z" p-id="3270"></path></svg>