<?xml version="1.0" standalone="no"?><!DOCTYPE svg PUBLIC "-//W3C//DTD SVG 1.1//EN" "http://www.w3.org/Graphics/SVG/1.1/DTD/svg11.dtd"><svg t="1524302808312" class="icon" style="" viewBox="0 0 1024 1024" version="1.1" xmlns="http://www.w3.org/2000/svg" p-id="2238" xmlns:xlink="http://www.w3.org/1999/xlink" width="128" height="128"><defs><style type="text/css"></style></defs><path d="M512.015052 31.368749c-262.404704 0-475.1071 215.155902-475.1071 480.661355 0 265.460297 212.717448 480.616199 475.1071 480.616199S987.122152 777.490401 987.122152 512.030104C987.122152 246.539703 774.404704 31.368749 512.015052 31.368749zM824.618786 828.818345c-40.625842 41.092459-87.934852 73.364339-140.587388 95.882405-54.458798 23.315831-112.349493 35.131795-172.031398 35.131795s-117.557548-11.815964-172.031398-35.131795c-52.667588-22.518066-99.961546-54.789946-140.60244-95.882405-40.670998-41.122564-72.581626-89.033662-94.888961-142.348493-23.090049-55.226459-34.800647-113.884816-34.800647-174.439747 0-60.569984 11.710598-119.258445 34.800647-174.484904 22.292283-53.314832 54.217963-101.22593 94.888961-142.348493 40.640894-41.107511 87.934852-73.379391 140.60244-95.897457 54.47385-23.300779 112.349493-35.116743 172.031398-35.116743s117.5726 11.815964 172.031398 35.116743c52.652536 22.518066 99.961546 54.789946 140.587388 95.897457 40.670998 41.122564 72.596678 89.018609 94.888961 142.348493 23.090049 55.211407 34.815699 113.899868 34.815699 174.484904 0 60.554932-11.710598 119.213288-34.815699 174.439747C897.215464 739.784683 865.289784 787.695781 824.618786 828.818345zM811.990004 749.523446c-0.045157-0.285991-0.105365-0.526826-0.165574-0.797766-0.015052-0.090313-0.030104-0.180626-0.045157-0.285991-15.202705-79.37016-60.253888-148.158636-126.995267-193.781802-28.734617-19.658151-59.998001-34.002881-92.646186-42.82346 54.383537-30.856975 91.186124-89.349757 91.186124-156.211554 0-98.907894-80.46897-179.376863-179.361811-179.376863-98.907894 0-179.376863 80.46897-179.376863 179.376863 0 69.526033 39.782919 130.005703 97.77898 159.793973-47.71542 14.871557-90.809819 41.137616-126.107188 77.142437-42.281582 43.109452-70.549581 97.056475-81.823666 156.121241-0.361252 1.339644-0.571983 2.754549-0.571983 4.214611 0 9.061414 7.345465 16.391827 16.406879 16.391827 7.902396 0 14.4802-5.58436 16.045627-13.005086l0.060209 0.015052c20.260238-109.399265 107.352168-196.686873 216.736381-217.233103 10.957989-2.062149 21.93103-3.431898 32.88902-4.13935 2.649184 0.120417 5.298368 0.195678 7.947553 0.195678 5.268264 0 10.476319-0.255887 15.639218-0.6924 52.050448 1.113862 102.701044 17.249802 146.683522 47.339115 59.681905 40.806468 99.946494 102.384948 113.388093 173.416199 0 0.015052 0 0.045157 0.015052 0.060209 0.015052 0.13547 0.045157 0.255887 0.060209 0.361252l0.030104 0c1.670792 7.270204 8.173335 12.704042 15.970366 12.704042 9.076466 0 16.406879-7.330413 16.406879-16.406879 0-0.797766-0.075261-1.580479-0.195678-2.348141L811.990004 749.55355zM357.414082 355.622872c0-80.81517 65.747935-146.563105 146.548052-146.563105s146.548052 65.747935 146.548052 146.563105c0 75.878054-57.965956 138.525239-131.932383 145.885756-7.5863-0.120417-15.187653 0.045157-22.804057 0.496722C418.766779 497.730531 357.414082 433.683493 357.414082 355.622872z" p-id="2239"></path></svg>